<?xml version="1.0" encoding="UTF-8"?>
<svg width="598px" height="88px" viewBox="0 0 598 88" version="1.1" xmlns="http://www.w3.org/2000/svg" xmlns:xlink="http://www.w3.org/1999/xlink">
    <!-- Generator: Sketch 44.1 (41455) - http://www.bohemiancoding.com/sketch -->
    <title>award-logo-01</title>
    <desc>Created with Sketch.</desc>
    <defs></defs>
    <g id="P.0-Pages" stroke="none" stroke-width="1" fill="none" fill-rule="evenodd">
        <g id="2.0-About" transform="translate(-500.000000, -3953.000000)" fill-rule="nonzero" fill="#8778D5">
            <g id="Group" transform="translate(500.000000, 720.000000)">
                <g id="award-logo-01" transform="translate(0.000000, 3233.000000)">
                    <polygon id="Shape" points="59.0163934 58.3606557 59.0163934 58.3606557 29.5081967 29.1803279 59.0163934 0 29.5081967 0 0 29.1803279 14.7540984 43.9344262 29.5081967 58.3606557 44.2622951 72.7868852"></polygon>
                    <polygon id="Shape" points="82.295082 43.9344262 67.5409836 29.1803279 52.7868852 14.7540984 38.3606557 29.1803279 67.5409836 58.3606557 67.5409836 58.3606557 67.5409836 58.3606557 38.0327869 87.5409836 67.5409836 87.5409836 82.295082 73.1147541 97.0491803 58.3606557"></polygon>
                    <path d="M133.770492,29.1803279 C129.508197,29.1803279 125.901639,30.4918033 123.278689,33.442623 C120.655738,36.3934426 119.344262,40.3278689 119.344262,45.5737705 C119.344262,50.8196721 120.655738,54.7540984 122.95082,57.704918 C125.57377,60.6557377 128.852459,61.9672131 133.442623,61.9672131 C136.393443,61.9672131 139.344262,61.3114754 142.95082,60.3278689 L142.95082,64.5901639 C140,65.5737705 136.721311,66.2295082 132.786885,66.2295082 C126.885246,66.2295082 122.295082,64.5901639 119.016393,60.9836066 C115.737705,57.3770492 114.098361,52.1311475 114.098361,45.5737705 C114.098361,41.3114754 114.754098,37.704918 116.393443,34.7540984 C118.032787,31.8032787 120.327869,29.1803279 122.95082,27.5409836 C125.901639,25.9016393 129.180328,24.9180328 133.442623,24.9180328 C137.704918,24.9180328 141.311475,25.5737705 144.590164,27.2131148 L142.622951,31.147541 C139.672131,30.1639344 136.721311,29.1803279 133.770492,29.1803279 Z" id="Shape"></path>
                    <path d="M174.754098,55.0819672 C174.754098,58.6885246 173.442623,61.3114754 170.819672,63.2786885 C168.196721,65.2459016 164.918033,66.2295082 160.327869,66.2295082 C155.409836,66.2295082 151.803279,65.5737705 149.180328,64.2622951 L149.180328,59.6721311 C150.819672,60.3278689 152.786885,60.9836066 154.42623,61.3114754 C156.065574,61.6393443 158.688525,62.295082 160.655738,62.295082 C163.934426,62.295082 166.229508,61.6393443 167.540984,60.6557377 C169.180328,59.3442623 169.836066,57.704918 169.836066,55.7377049 C169.836066,54.4262295 169.508197,53.1147541 168.852459,52.4590164 C168.196721,51.4754098 167.213115,50.8196721 165.901639,49.8360656 C164.590164,49.1803279 162.622951,48.1967213 160,47.2131148 C156.393443,45.9016393 153.442623,44.2622951 152.131148,42.295082 C150.491803,40.3278689 149.836066,38.0327869 149.836066,35.0819672 C149.836066,32.1311475 151.147541,29.5081967 153.442623,27.5409836 C155.737705,25.5737705 159.016393,24.9180328 162.622951,24.9180328 C166.557377,24.9180328 170.163934,25.5737705 173.770492,27.2131148 L172.459016,31.147541 C169.180328,29.8360656 165.901639,29.1803279 162.622951,29.1803279 C160,29.1803279 158.360656,29.8360656 156.721311,30.8196721 C155.409836,31.8032787 154.754098,33.442623 154.754098,35.4098361 C154.754098,36.7213115 155.081967,38.0327869 155.409836,38.6885246 C156.065574,39.6721311 156.721311,40.3278689 158.032787,40.9836066 C159.344262,41.6393443 160.983607,42.6229508 163.606557,43.6065574 C167.868852,45.2459016 170.819672,46.8852459 172.459016,48.5245902 C173.770492,50.1639344 174.754098,52.4590164 174.754098,55.0819672 Z" id="Shape"></path>
                    <path d="M205.57377,55.0819672 C205.57377,58.6885246 204.262295,61.3114754 201.639344,63.2786885 C199.016393,65.2459016 195.737705,66.2295082 191.147541,66.2295082 C186.229508,66.2295082 182.622951,65.5737705 180,64.2622951 L180,59.6721311 C181.639344,60.3278689 183.606557,60.9836066 185.245902,61.3114754 C186.885246,61.6393443 189.180328,61.9672131 191.147541,61.9672131 C194.42623,61.9672131 196.721311,61.3114754 198.032787,60.3278689 C199.672131,59.0163934 200.327869,57.3770492 200.327869,55.4098361 C200.327869,54.0983607 200,52.7868852 199.344262,52.1311475 C198.688525,51.147541 197.704918,50.4918033 196.393443,49.5081967 C195.081967,48.852459 193.114754,47.8688525 190.491803,46.8852459 C186.885246,45.5737705 183.934426,43.9344262 182.622951,41.9672131 C180.983607,40 180.327869,37.704918 180.327869,34.7540984 C180.327869,31.8032787 181.639344,29.1803279 183.934426,27.2131148 C186.229508,25.2459016 189.508197,24.5901639 193.114754,24.5901639 C197.04918,24.5901639 200.655738,25.2459016 204.262295,26.8852459 L203.278689,31.4754098 C200,30.1639344 196.721311,29.5081967 193.442623,29.5081967 C190.819672,29.5081967 189.180328,30.1639344 187.540984,31.147541 C186.229508,32.1311475 185.57377,33.7704918 185.57377,35.7377049 C185.57377,37.0491803 185.901639,38.3606557 186.229508,39.0163934 C186.885246,40 187.540984,40.6557377 188.852459,41.3114754 C190.163934,41.9672131 191.803279,42.9508197 194.42623,43.9344262 C198.688525,45.5737705 201.639344,47.2131148 203.278689,48.852459 C204.918033,50.1639344 205.57377,52.4590164 205.57377,55.0819672 Z" id="Shape"></path>
                    <path d="M246.885246,44.9180328 C246.885246,51.4754098 244.918033,56.7213115 241.311475,60.3278689 C237.704918,63.9344262 232.459016,65.9016393 225.57377,65.9016393 L212.459016,65.9016393 L212.459016,25.5737705 L226.229508,25.5737705 C232.786885,25.5737705 237.704918,27.2131148 241.311475,30.4918033 C244.918033,33.7704918 246.885246,38.6885246 246.885246,44.9180328 Z M235.409836,45.2459016 C235.409836,41.6393443 234.754098,38.6885246 233.114754,37.0491803 C231.47541,35.4098361 229.508197,34.4262295 226.557377,34.4262295 L223.278689,34.4262295 L223.278689,57.0491803 L225.57377,57.0491803 C228.852459,57.0491803 231.147541,56.0655738 232.786885,54.0983607 C234.754098,52.1311475 235.409836,49.1803279 235.409836,45.2459016 Z" id="Shape"></path>
                    <path d="M268.52459,66.557377 C263.278689,66.557377 259.344262,65.2459016 256.393443,62.295082 C253.442623,59.6721311 252.131148,55.7377049 252.131148,50.4918033 C252.131148,45.2459016 253.442623,41.3114754 256.065574,38.3606557 C258.688525,35.4098361 262.622951,34.0983607 267.540984,34.0983607 C272.131148,34.0983607 275.737705,35.4098361 278.360656,37.704918 C280.983607,40 282.295082,43.6065574 282.295082,48.1967213 L282.295082,53.1147541 L262.95082,53.1147541 C262.95082,54.7540984 263.606557,56.0655738 264.918033,57.3770492 C266.229508,58.3606557 267.868852,59.0163934 269.836066,59.0163934 C271.803279,59.0163934 273.442623,58.6885246 275.081967,58.3606557 C276.721311,58.0327869 278.360656,57.3770492 280.327869,56.3934426 L280.327869,64.2622951 C278.688525,65.2459016 277.04918,65.5737705 275.081967,65.9016393 C273.114754,66.2295082 270.819672,66.557377 268.52459,66.557377 Z M267.868852,41.6393443 C266.557377,41.6393443 265.57377,41.9672131 264.590164,42.9508197 C263.606557,43.6065574 263.278689,44.9180328 262.95082,46.557377 L272.131148,46.557377 C272.131148,44.9180328 271.803279,43.9344262 270.819672,42.9508197 C270.163934,41.9672131 269.180328,41.6393443 267.868852,41.6393443 Z" id="Shape"></path>
                    <path d="M312.131148,56.3934426 C312.131148,59.6721311 311.147541,62.295082 308.852459,63.9344262 C306.557377,65.5737705 303.278689,66.557377 299.016393,66.557377 C296.721311,66.557377 294.754098,66.557377 293.114754,66.2295082 C291.47541,65.9016393 289.508197,65.5737705 287.868852,64.9180328 L287.868852,56.3934426 C289.508197,57.0491803 291.47541,57.704918 293.442623,58.3606557 C295.409836,58.6885246 297.04918,59.0163934 298.688525,59.0163934 C300.983607,59.0163934 302.295082,58.3606557 302.295082,57.3770492 C302.295082,56.7213115 301.967213,56.3934426 301.311475,56.0655738 C300.655738,55.7377049 298.688525,54.7540984 295.737705,53.442623 C292.786885,52.1311475 290.819672,50.8196721 289.836066,49.5081967 C288.852459,47.8688525 288.196721,46.2295082 288.196721,43.9344262 C288.196721,40.9836066 289.180328,38.6885246 291.47541,37.0491803 C293.770492,35.4098361 296.721311,34.7540984 300.983607,34.7540984 C302.95082,34.7540984 304.918033,35.0819672 306.885246,35.4098361 C308.852459,35.7377049 310.491803,36.3934426 312.459016,37.3770492 L309.508197,44.2622951 C308.196721,43.6065574 306.557377,42.9508197 304.918033,42.6229508 C303.278689,42.295082 301.967213,41.9672131 300.983607,41.9672131 C299.344262,41.9672131 298.360656,42.295082 298.360656,43.2786885 C298.360656,43.9344262 298.688525,44.2622951 299.344262,44.5901639 C300,44.9180328 301.639344,45.5737705 304.590164,46.8852459 C306.885246,47.8688525 308.52459,48.5245902 309.508197,49.5081967 C310.491803,50.4918033 311.47541,51.4754098 311.803279,52.4590164 C312.131148,53.1147541 312.131148,54.7540984 312.131148,56.3934426 Z" id="Shape"></path>
                    <path d="M318.032787,26.8852459 C318.032787,25.2459016 318.360656,23.9344262 319.344262,23.2786885 C320.327869,22.6229508 321.639344,21.9672131 323.606557,21.9672131 C325.57377,21.9672131 327.213115,22.295082 327.868852,23.2786885 C328.852459,23.9344262 329.180328,25.2459016 329.180328,26.8852459 C329.180328,30.1639344 327.213115,31.4754098 323.278689,31.4754098 C320,31.8032787 318.032787,30.1639344 318.032787,26.8852459 Z M329.180328,65.9016393 L318.360656,65.9016393 L318.360656,34.7540984 L329.180328,34.7540984 L329.180328,65.9016393 Z" id="Shape"></path>
                    <path d="M365.901639,34.7540984 L365.901639,40 L361.639344,41.6393443 C362.295082,42.6229508 362.622951,43.9344262 362.622951,45.2459016 C362.622951,48.5245902 361.311475,51.147541 359.016393,53.1147541 C356.721311,55.0819672 353.114754,55.7377049 348.52459,55.7377049 C347.213115,55.7377049 346.557377,55.7377049 345.901639,55.4098361 C345.57377,55.7377049 345.57377,56.3934426 345.57377,56.7213115 C345.57377,57.3770492 345.901639,57.704918 346.885246,58.0327869 C347.868852,58.3606557 348.852459,58.3606557 350.163934,58.3606557 L355.409836,58.3606557 C362.295082,58.3606557 365.901639,61.3114754 365.901639,67.2131148 C365.901639,71.147541 364.262295,74.0983607 360.983607,76.0655738 C357.704918,78.0327869 353.114754,79.3442623 347.213115,79.3442623 C342.95082,79.3442623 339.344262,78.6885246 337.04918,77.0491803 C334.754098,75.7377049 333.442623,73.442623 333.442623,70.8196721 C333.442623,67.2131148 335.737705,64.5901639 340.327869,63.6065574 C339.344262,63.2786885 338.688525,62.6229508 337.704918,61.6393443 C337.04918,60.6557377 336.721311,60 336.721311,59.0163934 C336.721311,58.0327869 337.04918,57.0491803 337.377049,56.3934426 C338.032787,55.7377049 339.016393,54.7540984 340.655738,53.7704918 C339.016393,53.1147541 337.704918,51.8032787 336.721311,50.4918033 C335.737705,48.852459 335.409836,47.2131148 335.409836,44.9180328 C335.409836,41.6393443 336.721311,39.0163934 339.016393,37.0491803 C341.311475,35.0819672 344.590164,34.0983607 348.852459,34.0983607 C349.508197,34.0983607 350.491803,34.0983607 351.803279,34.4262295 C353.114754,34.7540984 354.098361,34.7540984 354.754098,34.7540984 L365.901639,34.7540984 L365.901639,34.7540984 Z M342.622951,69.8360656 C342.622951,70.8196721 342.95082,71.4754098 343.934426,72.1311475 C344.918033,72.7868852 346.229508,72.7868852 347.868852,72.7868852 C350.491803,72.7868852 352.459016,72.4590164 354.098361,71.8032787 C355.737705,71.147541 356.393443,70.1639344 356.393443,69.1803279 C356.393443,68.1967213 356.065574,67.8688525 355.081967,67.5409836 C354.098361,67.2131148 352.786885,66.8852459 350.819672,66.8852459 L346.557377,66.8852459 C345.245902,66.8852459 344.590164,67.2131148 343.606557,67.5409836 C342.95082,68.1967213 342.622951,68.852459 342.622951,69.8360656 Z M345.901639,44.9180328 C345.901639,48.1967213 346.885246,49.8360656 349.180328,49.8360656 C350.163934,49.8360656 351.147541,49.5081967 351.47541,48.5245902 C352.131148,47.8688525 352.459016,46.557377 352.459016,44.9180328 C352.459016,41.6393443 351.47541,40 349.180328,40 C346.885246,40 345.901639,41.6393443 345.901639,44.9180328 Z" id="Shape"></path>
                    <path d="M390.491803,65.9016393 L390.491803,48.852459 C390.491803,46.8852459 390.163934,45.2459016 389.508197,44.2622951 C388.852459,43.2786885 387.868852,42.6229508 386.557377,42.6229508 C384.590164,42.6229508 383.278689,43.2786885 382.622951,44.9180328 C381.967213,46.2295082 381.311475,48.852459 381.311475,52.4590164 L381.311475,66.2295082 L370.491803,66.2295082 L370.491803,35.0819672 L378.688525,35.0819672 L380,39.0163934 L380.655738,39.0163934 C381.639344,37.704918 382.95082,36.3934426 384.590164,35.7377049 C386.229508,35.0819672 388.196721,34.7540984 390.163934,34.7540984 C393.770492,34.7540984 396.393443,35.7377049 398.360656,37.704918 C400.327869,39.6721311 401.311475,42.6229508 401.311475,46.2295082 L401.311475,66.557377 L390.491803,66.557377 L390.491803,65.9016393 Z" id="Shape"></path>
                    <path d="M435.409836,65.9016393 L430.491803,53.1147541 L414.42623,53.1147541 L409.508197,65.9016393 L404.918033,65.9016393 L420.983607,25.5737705 L424.918033,25.5737705 L440.655738,65.9016393 L435.409836,65.9016393 Z M429.180328,48.852459 L424.590164,36.3934426 C423.934426,34.7540984 423.278689,32.7868852 422.622951,30.4918033 C422.295082,32.1311475 421.639344,34.0983607 420.983607,36.3934426 L416.393443,48.852459 L429.180328,48.852459 L429.180328,48.852459 Z" id="Shape"></path>
                    <path d="M469.836066,65.9016393 L464.262295,48.1967213 C463.934426,47.2131148 463.278689,44.5901639 462.295082,40.9836066 L462.295082,40.9836066 C461.639344,44.2622951 460.983607,46.557377 460.327869,48.5245902 L454.754098,66.2295082 L449.180328,66.2295082 L440.983607,36.0655738 L445.901639,36.0655738 C447.868852,43.6065574 449.180328,49.5081967 450.491803,53.442623 C451.47541,57.3770492 452.131148,60 452.131148,61.3114754 L452.459016,61.3114754 C452.786885,60.3278689 453.114754,59.0163934 453.442623,57.3770492 C453.770492,55.7377049 454.42623,54.4262295 454.754098,53.442623 L460.327869,36.0655738 L465.245902,36.0655738 L470.491803,53.442623 C471.47541,56.7213115 472.131148,59.3442623 472.459016,61.3114754 L472.786885,61.3114754 C472.786885,60.6557377 473.114754,59.6721311 473.442623,58.3606557 C473.770492,57.0491803 475.737705,49.5081967 479.016393,36.0655738 L483.606557,36.0655738 L475.409836,66.2295082 L469.836066,66.2295082 L469.836066,65.9016393 Z" id="Shape"></path>
                    <path d="M507.540984,65.9016393 L506.557377,61.6393443 L506.229508,61.6393443 C504.590164,63.6065574 503.278689,64.9180328 501.639344,65.5737705 C500,66.2295082 498.360656,66.557377 496.065574,66.557377 C493.114754,66.557377 490.819672,65.9016393 489.180328,64.2622951 C487.540984,62.6229508 486.557377,60.6557377 486.557377,57.704918 C486.557377,51.4754098 491.47541,48.5245902 501.311475,48.1967213 L506.557377,47.8688525 L506.557377,45.9016393 C506.557377,43.6065574 505.901639,41.6393443 504.918033,40.6557377 C503.934426,39.6721311 502.295082,39.0163934 500,39.0163934 C497.377049,39.0163934 494.754098,39.6721311 491.47541,41.3114754 L490.163934,37.704918 C491.803279,37.0491803 493.114754,36.3934426 495.081967,35.7377049 C496.721311,35.4098361 498.688525,35.0819672 500.327869,35.0819672 C503.934426,35.0819672 506.557377,35.7377049 508.196721,37.3770492 C509.836066,39.0163934 510.819672,41.6393443 510.819672,44.9180328 L510.819672,65.5737705 L507.540984,65.5737705 L507.540984,65.9016393 Z M497.377049,62.6229508 C500.327869,62.6229508 502.295082,61.9672131 503.934426,60.3278689 C505.57377,58.6885246 506.229508,56.7213115 506.229508,53.7704918 L506.229508,51.147541 L501.639344,51.4754098 C498.032787,51.4754098 495.409836,52.1311475 493.770492,53.1147541 C492.131148,54.0983607 491.47541,55.7377049 491.47541,57.704918 C491.47541,59.3442623 492.131148,60.6557377 493.114754,61.3114754 C494.098361,62.295082 495.409836,62.6229508 497.377049,62.6229508 Z" id="Shape"></path>
                    <path d="M534.098361,35.0819672 C535.409836,35.0819672 536.721311,35.0819672 537.704918,35.4098361 L537.04918,39.6721311 C535.737705,39.3442623 534.754098,39.3442623 533.770492,39.3442623 C531.47541,39.3442623 529.180328,40.3278689 527.540984,42.295082 C525.901639,44.2622951 524.918033,46.8852459 524.918033,49.8360656 L524.918033,65.9016393 L520.327869,65.9016393 L520.327869,35.7377049 L523.934426,35.7377049 L524.590164,41.3114754 L524.918033,41.3114754 C525.901639,39.3442623 527.540984,37.704918 528.852459,36.7213115 C530.491803,35.7377049 532.131148,35.0819672 534.098361,35.0819672 Z" id="Shape"></path>
                    <path d="M563.934426,61.9672131 L563.934426,61.9672131 C561.639344,64.9180328 558.360656,66.557377 554.098361,66.557377 C550.163934,66.557377 547.213115,65.2459016 544.918033,62.6229508 C542.622951,60 541.639344,56.0655738 541.639344,51.147541 C541.639344,46.2295082 542.622951,42.295082 544.918033,39.6721311 C547.213115,37.0491803 550.163934,35.4098361 554.098361,35.4098361 C558.032787,35.4098361 561.311475,37.0491803 563.606557,40 L563.934426,40 L563.606557,37.704918 L563.606557,35.7377049 L563.606557,22.9508197 L568.196721,22.9508197 L568.196721,65.9016393 L564.590164,65.9016393 L563.934426,61.9672131 Z M554.754098,62.6229508 C558.032787,62.6229508 560,61.6393443 561.639344,60 C562.95082,58.3606557 563.606557,55.4098361 563.606557,51.8032787 L563.606557,50.8196721 C563.606557,46.557377 562.95082,43.6065574 561.311475,41.6393443 C560,39.6721311 557.704918,39.0163934 554.42623,39.0163934 C551.803279,39.0163934 549.836066,40 548.196721,42.295082 C546.885246,44.2622951 545.901639,47.2131148 545.901639,51.147541 C545.901639,55.0819672 546.557377,58.0327869 547.868852,60 C549.836066,61.6393443 552.131148,62.6229508 554.754098,62.6229508 Z" id="Shape"></path>
                    <path d="M597.377049,57.704918 C597.377049,60.6557377 596.393443,62.6229508 594.098361,64.2622951 C591.803279,65.9016393 589.180328,66.557377 585.245902,66.557377 C581.311475,66.557377 578.032787,65.9016393 575.737705,64.5901639 L575.737705,60.3278689 C577.04918,60.9836066 578.688525,61.6393443 580.327869,61.9672131 C581.967213,62.295082 583.606557,62.6229508 585.245902,62.6229508 C587.540984,62.6229508 589.508197,62.295082 590.819672,61.6393443 C592.131148,60.9836066 592.786885,59.6721311 592.786885,58.0327869 C592.786885,56.7213115 592.131148,55.7377049 591.147541,55.0819672 C590.163934,54.0983607 588.196721,53.1147541 585.245902,52.1311475 C582.295082,51.147541 580.327869,50.1639344 579.344262,49.5081967 C578.032787,48.852459 577.377049,47.8688525 576.721311,46.8852459 C576.065574,45.9016393 575.737705,44.5901639 575.737705,43.2786885 C575.737705,40.9836066 576.721311,39.0163934 578.688525,37.3770492 C580.655738,35.7377049 583.278689,35.0819672 586.885246,35.0819672 C590.163934,35.0819672 593.442623,35.7377049 596.393443,37.0491803 L594.754098,40.6557377 C591.803279,39.3442623 588.852459,38.6885246 586.557377,38.6885246 C584.262295,38.6885246 582.622951,39.0163934 581.639344,39.6721311 C580.655738,40.3278689 580,41.3114754 580,42.6229508 C580,43.2786885 580.327869,44.2622951 580.655738,44.5901639 C580.983607,45.2459016 581.639344,45.5737705 582.622951,46.2295082 C583.606557,46.8852459 585.245902,47.5409836 587.868852,48.5245902 C591.47541,49.8360656 593.770492,51.147541 595.081967,52.4590164 C596.721311,54.0983607 597.377049,55.7377049 597.377049,57.704918 Z" id="Shape"></path>
                </g>
            </g>
        </g>
    </g>
</svg>