<?xml version="1.0" encoding="UTF-8"?>
<svg width="581px" height="145px" viewBox="0 0 581 145" version="1.1" xmlns="http://www.w3.org/2000/svg" xmlns:xlink="http://www.w3.org/1999/xlink">
    <!-- Generator: Sketch 44.1 (41455) - http://www.bohemiancoding.com/sketch -->
    <title>award-logo-02</title>
    <desc>Created with Sketch.</desc>
    <defs></defs>
    <g id="P.0-Pages" stroke="none" stroke-width="1" fill="none" fill-rule="evenodd">
        <g id="2.0-About" transform="translate(-500.000000, -4676.000000)" fill="#C2E700">
            <g id="Group" transform="translate(500.000000, 720.000000)">
                <g id="award-logo-02" transform="translate(0.000000, 3956.000000)">
                    <g id="Group-6">
                        <polygon id="Path-2" points="0.0436452514 64.5594201 42.7758331 21.9011918 58.8126417 37.9102445 50.0395481 46.6681539 74.0952017 70.6821727 81.519371 63.2708529 100.524759 82.2433472 59.6301975 123.06713 40.43062 103.900782 50.8307004 93.5187021 29.9122115 72.6364182 19.9334919 82.597867"></polygon>
                        <ellipse id="Oval" cx="66.4804469" cy="13.9423077" rx="13.9664804" ry="13.9423077"></ellipse>
                        <ellipse id="Oval" cx="32.9608939" cy="131.057692" rx="13.9664804" ry="13.9423077"></ellipse>
                    </g>
                    <path d="M143.64176,104.819188 L139.26676,104.819188 L139.26676,62.5535632 L143.64176,62.5535632 L143.64176,104.819188 Z M138.64176,50.3660632 C138.64176,49.4806421 138.889153,48.7254413 139.383947,48.1004382 C139.878741,47.4754351 140.581859,47.1629382 141.493322,47.1629382 C142.404785,47.1629382 143.114413,47.4754351 143.622229,48.1004382 C144.130044,48.7254413 144.383947,49.4806421 144.383947,50.3660632 C144.383947,51.2514843 144.130044,52.0001747 143.622229,52.6121569 C143.114413,53.2241392 142.404785,53.5301257 141.493322,53.5301257 C140.581859,53.5301257 139.878741,53.2241392 139.383947,52.6121569 C138.889153,52.0001747 138.64176,51.2514843 138.64176,50.3660632 Z M202.23551,104.819188 L197.743322,104.819188 L197.743322,77.5926257 L171.024572,77.5926257 L171.024572,104.819188 L166.571447,104.819188 L166.571447,47.9441882 L171.024572,47.9441882 L171.024572,73.4520007 L197.743322,73.4520007 L197.743322,47.9441882 L202.23551,47.9441882 L202.23551,104.819188 Z M247.157385,104.819188 C246.766758,103.465015 246.506344,101.511909 246.376135,98.9598132 C245.074045,101.069199 243.400885,102.703297 241.356604,103.862157 C239.312322,105.021017 237.092293,105.600438 234.696447,105.600438 C231.050596,105.600438 228.212082,104.571803 226.180822,102.514501 C224.149562,100.457199 223.133947,97.5275405 223.133947,93.7254382 C223.133947,89.5847925 224.546694,86.3035753 227.372229,83.8816882 C230.197763,81.4598011 234.097464,80.235855 239.071447,80.2098132 L246.337072,80.2098132 L246.337072,74.3113757 C246.337072,71.2905273 245.588382,69.1225802 244.090979,67.8074694 C242.593575,66.4923587 240.399587,65.8348132 237.508947,65.8348132 C234.826642,65.8348132 232.626143,66.6160554 230.907385,68.1785632 C229.188626,69.741071 228.32926,71.75928 228.32926,74.2332507 L223.993322,74.1941882 C223.993322,70.7306292 225.295393,67.7944607 227.899572,65.3855944 C230.503752,62.9767282 233.771948,61.7723132 237.70426,61.7723132 C241.949073,61.7723132 245.165186,62.8400108 247.352697,64.9754382 C249.540208,67.1108655 250.633947,70.2228136 250.633947,74.3113757 L250.633947,95.0535632 C250.633947,99.1942089 251.011548,102.293136 251.76676,104.350438 L251.76676,104.819188 L247.157385,104.819188 Z M235.243322,101.420751 C237.795418,101.420751 240.05451,100.756695 242.020666,99.4285632 C243.986822,98.1004316 245.425609,96.3296159 246.337072,94.1160632 L246.337072,83.8426257 L239.462072,83.8426257 C235.503719,83.8947093 232.521978,84.7736067 230.51676,86.4793444 C228.511541,88.1850821 227.508947,90.4832362 227.508947,93.3738757 C227.508947,98.7384858 230.087046,101.420751 235.243322,101.420751 Z M285.82926,101.577001 C288.850108,101.577001 291.167793,100.730655 292.782385,99.0379382 C294.396976,97.3452214 295.269363,94.9103499 295.399572,91.7332507 L299.57926,91.7332507 C299.370925,96.056189 297.990731,99.4480821 295.438635,101.909032 C292.886539,104.369982 289.683446,105.600438 285.82926,105.600438 C280.803193,105.600438 277.007658,103.992381 274.442541,100.776219 C271.877424,97.5600575 270.568843,92.7879698 270.51676,86.4598132 L270.51676,81.3035632 C270.51676,74.8451976 271.799299,69.9754546 274.364416,66.6941882 C276.929533,63.4129218 280.738089,61.7723132 285.790197,61.7723132 C289.982927,61.7723132 293.290185,63.0939146 295.712072,65.7371569 C298.133959,68.3803993 299.423009,72.0717687 299.57926,76.8113757 L295.399572,76.8113757 C295.269363,73.3217749 294.383955,70.619979 292.743322,68.7059069 C291.102689,66.7918349 288.785004,65.8348132 285.790197,65.8348132 C282.040179,65.8348132 279.2863,67.0978214 277.528479,69.6238757 C275.770657,72.14993 274.89176,76.0300995 274.89176,81.2645007 L274.89176,86.0691882 C274.89176,91.4858819 275.777168,95.4246446 277.54801,97.8855944 C279.318852,100.346544 282.079241,101.577001 285.82926,101.577001 Z M327.54801,83.6863757 L323.133947,88.6082507 L323.133947,104.819188 L318.758947,104.819188 L318.758947,44.8191882 L323.133947,44.8191882 L323.133947,82.9832507 L326.76676,78.3738757 L339.852697,62.5535632 L345.243322,62.5535632 L330.399572,80.4051257 L346.649572,104.819188 L341.493322,104.819188 L327.54801,83.6863757 Z M399.032385,98.2176257 C397.131334,100.665555 394.735524,102.507984 391.844885,103.744969 C388.954245,104.981955 385.790214,105.600438 382.352697,105.600438 C376.519335,105.600438 371.936047,103.647333 368.602697,99.7410632 C365.269347,95.8347937 363.537594,90.4181812 363.407385,83.4910632 L363.407385,69.6629382 C363.407385,62.3972769 364.9894,56.8309263 368.153479,52.9637194 C371.317557,49.0965126 375.82923,47.1629382 381.688635,47.1629382 C386.923036,47.1629382 391.024557,48.6082362 393.993322,51.4988757 C396.962087,54.3895151 398.628737,58.5561401 398.993322,63.9988757 L394.540197,63.9988757 C394.071445,59.6238538 392.788906,56.4272712 390.692541,54.4090319 C388.596176,52.3907927 385.607925,51.3816882 381.727697,51.3816882 C377.092257,51.3816882 373.62224,52.9246415 371.317541,56.0105944 C369.012842,59.0965474 367.86051,63.6212417 367.86051,69.5848132 L367.86051,82.7098132 C367.86051,88.6473429 369.130028,93.2566718 371.669104,96.5379382 C374.208179,99.8192046 377.769341,101.459813 382.352697,101.459813 C387.32668,101.459813 391.38914,99.8843081 394.540197,96.7332507 L394.540197,81.9285632 L382.07926,81.9285632 L382.07926,77.7488757 L399.032385,77.7488757 L399.032385,98.2176257 Z M437.469885,66.6160632 C436.428213,66.4337706 435.516764,66.3426257 434.73551,66.3426257 C432.339664,66.3426257 430.327966,67.16293 428.700354,68.8035632 C427.072741,70.4441964 425.920409,72.7228194 425.243322,75.6395007 L425.243322,104.819188 L420.907385,104.819188 L420.907385,62.5535632 L425.165197,62.5535632 L425.243322,68.8816882 C427.300624,64.1420812 430.529759,61.7723132 434.930822,61.7723132 C436.076661,61.7723132 436.949048,61.9415823 437.54801,62.2801257 L437.469885,66.6160632 Z M452.665197,81.5379382 C452.665197,75.4441577 454.045392,70.6264976 456.805822,67.0848132 C459.566253,63.5431288 463.329236,61.7723132 468.094885,61.7723132 C472.886575,61.7723132 476.656069,63.5170874 479.403479,67.0066882 C482.150888,70.496289 483.537593,75.3009284 483.563635,81.4207507 L483.563635,85.9129382 C483.563635,92.1108858 482.17693,96.9415667 479.403479,100.405126 C476.630027,103.868685 472.886575,105.600438 468.17301,105.600438 C463.459445,105.600438 459.722503,103.907747 456.962072,100.522313 C454.201642,97.1368796 452.769364,92.4754679 452.665197,86.5379382 L452.665197,81.5379382 Z M457.040197,85.9129382 C457.040197,90.7827542 458.02326,94.6108409 459.989416,97.3973132 C461.955572,100.183785 464.683409,101.577001 468.17301,101.577001 C471.740736,101.577001 474.468573,100.235868 476.356604,97.5535632 C478.244634,94.8712581 479.201655,91.0301507 479.227697,86.0301257 L479.227697,81.5379382 C479.227697,76.6681222 478.238124,72.8335251 476.258947,70.0340319 C474.279771,67.2345388 471.558444,65.8348132 468.094885,65.8348132 C464.735493,65.8348132 462.066249,67.201987 460.087072,69.9363757 C458.107896,72.6707644 457.092281,76.4337476 457.040197,81.2254382 L457.040197,85.9129382 Z M526.219885,99.7801257 C523.824039,103.660353 520.113139,105.600438 515.087072,105.600438 C511.258928,105.600438 508.368332,104.272326 506.415197,101.616063 C504.462063,98.9597999 503.472489,95.053589 503.446447,89.8973132 L503.446447,62.5535632 L507.743322,62.5535632 L507.743322,89.7801257 C507.743322,93.6082698 508.420399,96.5118866 509.774572,98.4910632 C511.128746,100.47024 513.081851,101.459813 515.633947,101.459813 C521.102725,101.459813 524.605294,98.8035898 526.14176,93.4910632 L526.14176,62.5535632 L530.51676,62.5535632 L530.51676,104.819188 L526.29801,104.819188 L526.219885,99.7801257 Z M580.907385,85.6785632 C580.907385,92.1890124 579.774584,97.1368796 577.508947,100.522313 C575.243311,103.907747 571.857928,105.600438 567.352697,105.600438 C562.456839,105.600438 558.798022,103.647333 556.376135,99.7410632 L556.376135,121.069188 L552.07926,121.069188 L552.07926,62.5535632 L556.063635,62.5535632 L556.258947,68.3348132 C558.75896,63.9597913 562.417777,61.7723132 567.23551,61.7723132 C571.792824,61.7723132 575.204248,63.3868804 577.469885,66.6160632 C579.735521,69.845246 580.881343,74.7800925 580.907385,81.4207507 L580.907385,85.6785632 Z M576.571447,81.7332507 C576.571447,76.3165569 575.731612,72.3322218 574.051916,69.7801257 C572.37222,67.2280296 569.748548,65.9520007 566.180822,65.9520007 C561.597466,65.9520007 558.32927,68.2827066 556.376135,72.9441882 L556.376135,95.2098132 C558.32927,99.4546261 561.623507,101.577001 566.258947,101.577001 C569.748548,101.577001 572.333158,100.300972 574.012854,97.7488757 C575.692549,95.1967796 576.545405,91.2645273 576.571447,85.9520007 L576.571447,81.7332507 Z" id="iHackGroup"></path>
                </g>
            </g>
        </g>
    </g>
</svg>