<?xml version="1.0" encoding="UTF-8"?>
<svg width="50px" height="100px" viewBox="0 0 50 100" version="1.1" xmlns="http://www.w3.org/2000/svg" xmlns:xlink="http://www.w3.org/1999/xlink">
    <!-- Generator: Sketch 44.1 (41455) - http://www.bohemiancoding.com/sketch -->
    <title>button-prev</title>
    <desc>Created with Sketch.</desc>
    <defs></defs>
    <g id="Symbols" stroke="none" stroke-width="1" fill="none" fill-rule="evenodd">
        <g id="arrow-buttons" transform="translate(-50.000000, 0.000000)">
            <g id="button-prev">
                <g transform="translate(50.000000, 0.000000)">
                    <path d="M0,0 L50,0 L50,50 L0,50 L0,0 Z M32.9766349,25.2266349 C32.9895391,25.2137306 32.9895391,25.1928088 32.9766349,25.1799046 L22.1950954,14.3983651 L22.1950954,14.3983651 C21.4227997,13.6260694 20.1706609,13.6260694 19.3983651,14.3983651 L19.3983651,14.3983651 L19.3983651,14.3983651 C18.6260694,15.1706609 18.6260694,16.4227997 19.3983651,17.1950954 L26.0390562,23.8357864 L26.0390562,23.8357864 C26.8201047,24.616835 26.8201047,25.883165 26.0390562,26.6642136 L19.3983651,33.3049046 C18.6260694,34.0772003 18.6260694,35.3293391 19.3983651,36.1016349 L19.3983651,36.1016349 C20.1706609,36.8739306 21.4227997,36.8739306 22.1950954,36.1016349 L32.9766349,25.3200954 L32.9766349,25.3200954 C32.9895391,25.3071912 32.9895391,25.2862694 32.9766349,25.2733651 C32.9637306,25.2604609 32.9637306,25.2395391 32.9766349,25.2266349 Z" id="Combined-Shape" fill="#0E0D16" transform="translate(25.000000, 25.000000) rotate(-90.000000) translate(-25.000000, -25.000000) "></path>
                    <g id="Group-2" transform="translate(0.000000, 50.000000)">
                        <rect id="Rectangle-6" x="0" y="0" width="50" height="50"></rect>
                        <path d="M32.3239067,24.0739067 L32.3239067,24.0739067 L32.3239067,24.0739067 C32.3368109,24.0610025 32.3368109,24.0400806 32.3239067,24.0271764 L21.5423672,13.245637 L21.5423672,13.245637 C20.7700715,12.4733412 19.5179327,12.4733412 18.745637,13.245637 L18.745637,13.245637 L18.745637,13.245637 C17.9733412,14.0179327 17.9733412,15.2700715 18.745637,16.0423672 L25.386328,22.6830583 L25.386328,22.6830583 C26.1673766,23.4641068 26.1673766,24.7304368 25.386328,25.5114854 L18.745637,32.1521764 L18.745637,32.1521764 C17.9733412,32.9244721 17.9733412,34.1766109 18.745637,34.9489067 L18.745637,34.9489067 L18.745637,34.9489067 C19.5179327,35.7212024 20.7700715,35.7212024 21.5423672,34.9489067 L32.3239067,24.1673672 L32.3239067,24.1673672 C32.3368109,24.154463 32.3368109,24.1335412 32.3239067,24.120637 L32.3239067,24.120637 L32.3239067,24.120637 C32.3110025,24.1077328 32.3110025,24.0868109 32.3239067,24.0739067 Z" id="Combined-Shape" fill="#0E0D16" transform="translate(25.250000, 24.097272) rotate(-90.000000) translate(-25.250000, -24.097272) "></path>
                    </g>
                </g>
            </g>
        </g>
    </g>
</svg>