<?xml version="1.0" encoding="UTF-8"?>
<svg width="50px" height="100px" viewBox="0 0 50 100" version="1.1" xmlns="http://www.w3.org/2000/svg" xmlns:xlink="http://www.w3.org/1999/xlink">
    <!-- Generator: Sketch 44.1 (41455) - http://www.bohemiancoding.com/sketch -->
    <title>button-next</title>
    <desc>Created with Sketch.</desc>
    <defs></defs>
    <g id="Symbols" stroke="none" stroke-width="1" fill="none" fill-rule="evenodd">
        <g id="arrow-buttons" transform="translate(-100.000000, 0.000000)">
            <g id="button-next">
                <g transform="translate(100.000000, 0.000000)">
                    <path d="M0,50 L50,50 L50,100 L0,100 L0,50 Z M32.9766349,75.2266349 C32.9895391,75.2137306 32.9895391,75.1928088 32.9766349,75.1799046 L22.1950954,64.3983651 L22.1950954,64.3983651 C21.4227997,63.6260694 20.1706609,63.6260694 19.3983651,64.3983651 L19.3983651,64.3983651 L19.3983651,64.3983651 C18.6260694,65.1706609 18.6260694,66.4227997 19.3983651,67.1950954 L26.0390562,73.8357864 L26.0390562,73.8357864 C26.8201047,74.616835 26.8201047,75.883165 26.0390562,76.6642136 L19.3983651,83.3049046 C18.6260694,84.0772003 18.6260694,85.3293391 19.3983651,86.1016349 L19.3983651,86.1016349 C20.1706609,86.8739306 21.4227997,86.8739306 22.1950954,86.1016349 L32.9766349,75.3200954 L32.9766349,75.3200954 C32.9895391,75.3071912 32.9895391,75.2862694 32.9766349,75.2733651 C32.9637306,75.2604609 32.9637306,75.2395391 32.9766349,75.2266349 Z" id="Combined-Shape" fill="#0E0D16" transform="translate(25.000000, 75.000000) rotate(90.000000) translate(-25.000000, -75.000000) "></path>
                    <g id="Group-3">
                        <rect id="Combined-Shape" transform="translate(25.000000, 25.000000) rotate(90.000000) translate(-25.000000, -25.000000) " x="0" y="0" width="50" height="50"></rect>
                        <path d="M32.1574915,25.4074915 L32.1574915,25.4074915 L32.1574915,25.4074915 C32.1703957,25.3945873 32.1703957,25.3736655 32.1574915,25.3607612 L21.3759521,14.5792218 L21.3759521,14.5792218 C20.6036563,13.8069261 19.3515175,13.8069261 18.5792218,14.5792218 L18.5792218,14.5792218 L18.5792218,14.5792218 C17.8069261,15.3515175 17.8069261,16.6036563 18.5792218,17.3759521 L25.2199128,24.0166431 L25.2199128,24.0166431 C26.0009614,24.7976917 26.0009614,26.0640216 25.2199128,26.8450702 L18.5792218,33.4857612 L18.5792218,33.4857612 C17.8069261,34.258057 17.8069261,35.5101958 18.5792218,36.2824915 L18.5792218,36.2824915 L18.5792218,36.2824915 C19.3515175,37.0547873 20.6036563,37.0547873 21.3759521,36.2824915 L32.1574915,25.5009521 L32.1574915,25.5009521 C32.1703957,25.4880479 32.1703957,25.467126 32.1574915,25.4542218 L32.1574915,25.4542218 L32.1574915,25.4542218 C32.1445873,25.4413176 32.1445873,25.4203957 32.1574915,25.4074915 Z" id="Combined-Shape" fill="#0E0D16" transform="translate(25.083585, 25.430857) rotate(90.000000) translate(-25.083585, -25.430857) "></path>
                    </g>
                </g>
            </g>
        </g>
    </g>
</svg>