<?xml version="1.0" encoding="UTF-8"?>
<svg width="100px" height="50px" viewBox="0 0 100 50" version="1.1" xmlns="http://www.w3.org/2000/svg" xmlns:xlink="http://www.w3.org/1999/xlink">
    <!-- Generator: Sketch 44.1 (41455) - http://www.bohemiancoding.com/sketch -->
    <title>button-list</title>
    <desc>Created with Sketch.</desc>
    <defs></defs>
    <g id="Symbols" stroke="none" stroke-width="1" fill="none" fill-rule="evenodd">
        <g id="arrow-buttons">
            <g id="button-list">
                <g>
                    <path d="M50,0 L50,50 L0,50 L0,3.061617e-15 L50,0 Z M15,32 L29,32 C30.1045695,32 31,31.1045695 31,30 C31,28.8954305 30.1045695,28 29,28 L15,28 C13.8954305,28 13,28.8954305 13,30 C13,31.1045695 13.8954305,32 15,32 Z M15,22 L35,22 C36.1045695,22 37,21.1045695 37,20 C37,18.8954305 36.1045695,18 35,18 L15,18 C13.8954305,18 13,18.8954305 13,20 C13,21.1045695 13.8954305,22 15,22 Z" fill="#0E0D16"></path>
                    <g id="Group-4" transform="translate(50.000000, 0.000000)">
                        <rect id="Rectangle-6" opacity="0.01" x="0" y="1.5308085e-15" width="50" height="50"></rect>
                        <path d="M15,32 C13.8954305,32 13,31.1045695 13,30 C13,28.8954305 13.8954305,28 15,28 L29,28 C30.1045695,28 31,28.8954305 31,30 C31,31.1045695 30.1045695,32 29,32 L15,32 Z M15,22 C13.8954305,22 13,21.1045695 13,20 C13,18.8954305 13.8954305,18 15,18 L35,18 C36.1045695,18 37,18.8954305 37,20 C37,21.1045695 36.1045695,22 35,22 L15,22 Z" id="button-list-copy" fill="#0E0D16"></path>
                    </g>
                </g>
            </g>
        </g>
    </g>
</svg>