<?xml version="1.0" encoding="UTF-8"?>
<svg width="40px" height="40px" viewBox="0 0 40 40" version="1.1" xmlns="http://www.w3.org/2000/svg" xmlns:xlink="http://www.w3.org/1999/xlink">
    <!-- Generator: Sketch 45.2 (43514) - http://www.bohemiancoding.com/sketch -->
    <title>icon-about</title>
    <desc>Created with Sketch.</desc>
    <defs></defs>
    <g id="P.0-Pages" stroke="none" stroke-width="1" fill="none" fill-rule="evenodd">
        <g id="0.0-home" transform="translate(-1063.000000, -30.000000)">
            <g id="icon-about" transform="translate(1063.000000, 30.000000)">
                <circle id="Combined-Shape" fill="#FFF253" cx="20" cy="20" r="20"></circle>
                <polygon id="i" fill="#0F0D16" points="22.6290909 30.0192015 17.3272727 30.0192015 17.3272727 18.0192015 22.6290909 18.0192015"></polygon>
                <path d="M17,12.8527888 C17,12.0335223 17.2581792,11.3532487 17.7745455,10.8119476 C18.2909117,10.2706465 19.0290861,10 19.9890909,10 C20.9490957,10 21.6909065,10.2706465 22.2145455,10.8119476 C22.7381844,11.3532487 23,12.0335223 23,12.8527888 C23,13.6574255 22.7381844,14.326727 22.2145455,14.8607132 C21.6909065,15.3946994 20.9490957,15.6616885 19.9890909,15.6616885 C19.0290861,15.6616885 18.2909117,15.3946994 17.7745455,14.8607132 C17.2581792,14.326727 17,13.6574255 17,12.8527888 Z" id="i" fill="#0F0D16"></path>
            </g>
        </g>
    </g>
</svg>