<?xml version="1.0" encoding="UTF-8"?>
<svg width="81px" height="90px" viewBox="0 0 81 90" version="1.1" xmlns="http://www.w3.org/2000/svg" xmlns:xlink="http://www.w3.org/1999/xlink">
    <!-- Generator: Sketch 44.1 (41455) - http://www.bohemiancoding.com/sketch -->
    <title>icon-googleplay</title>
    <desc>Created with Sketch.</desc>
    <defs>
        <linearGradient x1="50%" y1="0%" x2="50%" y2="38.9125982%" id="linearGradient-1">
            <stop stop-color="#FBDA09" offset="0%"></stop>
            <stop stop-color="#FFBC00" offset="100%"></stop>
        </linearGradient>
        <path d="M76.7053477,39.7772281 C81.5094738,42.5053997 81.5124319,46.9270242 76.7053477,49.6569549 L8.69863984,88.2777889 C3.89451371,91.0060397 1.42108547e-14,88.7337529 1.42108547e-14,83.2250246 L2.84217094e-14,6.21042345 C2.84217094e-14,0.691607955 3.89155564,-1.57233573 8.69863984,1.15751571 L76.7053477,39.7772281 Z" id="path-2"></path>
        <linearGradient x1="0%" y1="58.4755255%" x2="69.3064856%" y2="39.0830098%" id="linearGradient-4">
            <stop stop-color="#01E2FF" offset="0%"></stop>
            <stop stop-color="#01C4FF" offset="100%"></stop>
        </linearGradient>
        <linearGradient x1="20.2810876%" y1="20.1019903%" x2="83.820166%" y2="83.6214476%" id="linearGradient-5">
            <stop stop-color="#28D781" offset="0%"></stop>
            <stop stop-color="#02F076" offset="100%"></stop>
        </linearGradient>
        <linearGradient x1="74.4881466%" y1="17.4301299%" x2="10.1079427%" y2="91.1838038%" id="linearGradient-6">
            <stop stop-color="#F2414E" offset="0%"></stop>
            <stop stop-color="#E02554" offset="100%"></stop>
        </linearGradient>
    </defs>
    <g id="Icons" stroke="none" stroke-width="1" fill="none" fill-rule="evenodd">
        <g id="Google-Play-Family-of-Apps" transform="translate(-213.000000, -38.000000)">
            <g id="icon-googleplay" transform="translate(213.000000, 38.000000)">
                <mask id="mask-3" fill="white">
                    <use xlink:href="#path-2"></use>
                </mask>
                <use id="yellow" fill="url(#linearGradient-1)" xlink:href="#path-2"></use>
                <polygon id="blue" fill="url(#linearGradient-4)" mask="url(#mask-3)" points="0 -0.0312500013 44.2294312 43.9975586 -0.571289062 89.7666016"></polygon>
                <polygon id="green" fill="url(#linearGradient-5)" mask="url(#mask-3)" points="-9.09521484 -9.09521485 44.2241821 44.010437 60.0766602 28.8637696"></polygon>
                <polygon id="red" fill="url(#linearGradient-6)" mask="url(#mask-3)" points="44.2314453 44.0003052 68.5 68.5001526 -4 93"></polygon>
            </g>
        </g>
    </g>
</svg>