<?xml version="1.0" encoding="UTF-8"?>
<svg width="22px" height="22px" viewBox="0 0 22 22" version="1.1" xmlns="http://www.w3.org/2000/svg" xmlns:xlink="http://www.w3.org/1999/xlink">
    <!-- Generator: Sketch 44.1 (41455) - http://www.bohemiancoding.com/sketch -->
    <title>icon-arrow</title>
    <desc>Created with Sketch.</desc>
    <defs></defs>
    <g id="P.0-Pages" stroke="none" stroke-width="1" fill="none" fill-rule="evenodd">
        <g id="0.0-home-copy" transform="translate(-1849.000000, -750.000000)" fill="#FFFFFF">
            <g id="main" transform="translate(-229.000000, 0.000000)">
                <g id="button-detail" transform="translate(2049.000000, 700.000000)">
                    <g id="Group-3" transform="translate(19.000000, 18.000000)">
                        <g id="icon-arrow" transform="translate(0.000000, 29.000000)">
                            <path d="M26.3387366,17.9713896 L26.3387366,17.9713896 L26.3387366,17.9713896 C26.3545376,17.9555885 26.3545376,17.9299699 26.3387366,17.9141689 L12.8387813,4.41421356 L12.8387813,4.41421356 C12.0577327,3.63316498 10.7914027,3.63316498 10.0103541,4.41421356 L9.41421356,5.01035413 L9.41421356,5.01035413 C8.63316498,5.79140271 8.63316498,7.05773267 9.41421356,7.83878125 L18.1612187,16.5857864 L18.1612187,16.5857864 C18.9422673,17.366835 18.9422673,18.633165 18.1612187,19.4142136 L9.41421356,28.1612187 L9.41421356,28.1612187 C8.63316498,28.9422673 8.63316498,30.2085973 9.41421356,30.9896459 L10.0103541,31.5857864 L10.0103541,31.5857864 C10.7914027,32.366835 12.0577327,32.366835 12.8387813,31.5857864 L26.3387366,18.0858311 L26.3387366,18.0858311 C26.3545376,18.0700301 26.3545376,18.0444115 26.3387366,18.0286104 L26.3387366,18.0286104 L26.3387366,18.0286104 C26.3229355,18.0128093 26.3229355,17.9871907 26.3387366,17.9713896 Z" id="Combined-Shape" transform="translate(17.183673, 18.000000) scale(-1, 1) rotate(-315.000000) translate(-17.183673, -18.000000) "></path>
                        </g>
                    </g>
                </g>
            </g>
        </g>
    </g>
</svg>