<?xml version="1.0" encoding="UTF-8"?>
<svg width="170px" height="30px" viewBox="0 0 170 30" version="1.1" xmlns="http://www.w3.org/2000/svg" xmlns:xlink="http://www.w3.org/1999/xlink">
    <!-- Generator: Sketch 44.1 (41455) - http://www.bohemiancoding.com/sketch -->
    <title>logo</title>
    <desc>Created with Sketch.</desc>
    <defs></defs>
    <g id="Symbols" stroke="none" stroke-width="1" fill="none" fill-rule="evenodd">
        <g id="top" transform="translate(0.000000, -3.000000)">
            <g transform="translate(0.000000, 2.000000)" id="logo">
                <g transform="translate(0.000000, 1.000000)">
                    <path d="M0,26.8517479 C0,28.0023781 1.06915663,28.5776932 2.13831325,28.5776932 C3.20746988,28.5776932 4.23975904,28.0383353 4.23975904,26.8877051 L4.23975904,26.8157907 C4.12915663,23.0043282 4.01855422,12.396956 4.01855422,8.65740785 C4.01855422,7.00337693 4.01855422,6.64380499 4.23975904,6.64380499 C4.42409639,6.64380499 4.68216867,7.11124851 4.82963855,7.32699168 C6.82048193,10.5990963 13.7146988,22.8964566 16.2954217,26.8877051 C17.106506,28.1102497 18.2862651,28.6855648 19.4660241,28.6855648 C21.1987952,28.6855648 22.8209639,27.427063 22.8209639,25.2696314 L22.8209639,25.197717 C22.7472289,22.0694411 22.7103614,17.3590488 22.7103614,12.7924851 C22.7103614,9.19676576 22.7472289,5.70891795 22.8209639,3.19191439 L22.8209639,3.12 C22.8209639,1.89745541 21.7518072,1.25022592 20.6826506,1.25022592 C19.5028916,1.25022592 18.5074699,2.00532699 18.5443373,3.19191439 C18.6549398,6.49997622 18.7655422,17.7186207 18.7655422,21.0985969 C18.7655422,22.5009275 18.6180723,22.608799 18.5074699,22.608799 C18.3968675,22.608799 18.2125301,22.4290131 17.9913253,22.1053983 C15.1893976,18.0062782 9.03253012,6.78763377 6.70987952,3.19191439 C5.93566265,2.00532699 4.46096386,1.25022592 3.09686747,1.25022592 C1.4746988,1.25022592 0.0368674699,2.25702735 0.0368674699,4.77403092 L0.0368674699,4.91785969 C0.0737349398,7.61464923 0.11060241,11.0305826 0.11060241,14.626302 C0.11060241,18.7613793 0.0737349398,23.1121998 0,26.8157907 L0,26.8517479 Z M42.1763855,28.9372652 C34.0655422,28.9372652 27.9824096,23.3639001 27.9824096,14.985874 C27.9824096,6.89550535 34.0655422,1.03448276 42.1763855,1.03448276 C50.2872289,1.03448276 56.4072289,6.89550535 56.4072289,14.985874 C56.4072289,23.3639001 50.2872289,28.9372652 42.1763855,28.9372652 Z M42.1763855,25.1617598 C47.6327711,25.1617598 52.0568675,21.1705113 52.0568675,14.985874 C52.0568675,8.76527943 47.6327711,4.73807372 42.1763855,4.73807372 C36.72,4.73807372 32.2959036,8.76527943 32.2959036,14.985874 C32.2959036,21.1705113 36.72,25.1617598 42.1763855,25.1617598 Z M76.1313253,4.95381688 C77.5322892,4.95381688 78.306506,3.98297265 78.306506,3.01212842 C78.306506,2.07724138 77.6428916,1.17831153 76.2419277,1.10639715 C75.6889157,1.07043995 73.6612048,1.03448276 71.559759,1.03448276 C69.4951807,1.03448276 67.3937349,1.07043995 66.7301205,1.10639715 C63.7438554,1.25022592 61.826747,2.76042806 61.753012,5.63700357 C61.6792771,7.90230678 61.6424096,12.7924851 61.6424096,17.1792628 C61.6424096,20.0917955 61.6424096,22.7526278 61.7161446,24.26283 C61.8636145,27.427063 63.9650602,28.6136504 67.3568675,28.8653508 C67.8361446,28.901308 69.9744578,28.9372652 72.0759036,28.9372652 C74.2142169,28.9372652 76.3525301,28.901308 76.8318072,28.8653508 C78.4171084,28.7934364 79.1544578,27.8225922 79.1544578,26.8517479 C79.1544578,25.9168609 78.4539759,25.017931 77.1636145,25.017931 L76.9792771,25.017931 C76.2787952,25.0538882 73.9192771,25.0898454 71.7440964,25.0898454 C66.5457831,25.0898454 65.9559036,25.017931 65.7715663,23.3639001 C65.6978313,22.7526278 65.6609639,21.9256124 65.6609639,16.5679905 C65.6609639,15.8128894 66.0296386,15.7769322 70.6012048,15.7769322 C72.0021687,15.7769322 73.4031325,15.8128894 74.3248193,15.8848038 L74.5091566,15.8848038 C75.7995181,15.8848038 76.4631325,14.8780024 76.4631325,13.8352438 C76.4631325,13.7273722 76.4631325,11.8216409 74.3985542,11.9295125 C73.7349398,11.9654697 71.9653012,11.9654697 70.2693976,11.9654697 C65.7346988,11.9654697 65.6978313,11.9654697 65.6978313,11.2463258 C65.7346988,9.16080856 65.6978313,7.39890606 65.7715663,6.53593341 C65.8821687,4.98977408 66.6563855,4.91785969 70.3431325,4.91785969 C72.8501205,4.91785969 76.1313253,4.95381688 76.1313253,4.95381688 Z M88.1501205,26.6000476 C88.0763855,22.1773127 88.0395181,17.5028775 88.0395181,13.0082283 C88.0395181,9.5203805 88.0763855,6.14040428 88.1501205,3.15595719 L88.1501205,3.08404281 C88.1501205,1.89745541 87.0440964,1.32214031 85.9749398,1.32214031 C85.3113253,1.32214031 83.6522892,1.71766944 83.7260241,3.22787158 C83.8366265,6.14040428 83.9103614,9.41250892 83.9103614,12.8284423 C83.9103614,17.4669203 83.799759,22.2851843 83.7260241,26.6000476 L83.7260241,26.6360048 C83.7260241,27.8945065 84.8320482,28.541736 85.9380723,28.541736 C87.0440964,28.541736 88.1501205,27.8945065 88.1501205,26.6360048 L88.1501205,26.6000476 Z M94.6387952,26.8517479 C94.6387952,28.0023781 95.7079518,28.5776932 96.7771084,28.5776932 C97.8462651,28.5776932 98.8785542,28.0383353 98.8785542,26.8877051 L98.8785542,26.8157907 C98.7679518,23.0043282 98.6573494,12.396956 98.6573494,8.65740785 C98.6573494,7.00337693 98.6573494,6.64380499 98.8785542,6.64380499 C99.0628916,6.64380499 99.3209639,7.11124851 99.4684337,7.32699168 C101.459277,10.5990963 108.353494,22.8964566 110.934217,26.8877051 C111.745301,28.1102497 112.92506,28.6855648 114.104819,28.6855648 C115.83759,28.6855648 117.459759,27.427063 117.459759,25.2696314 L117.459759,25.197717 C117.386024,22.0694411 117.349157,17.3590488 117.349157,12.7924851 C117.349157,9.19676576 117.386024,5.70891795 117.459759,3.19191439 L117.459759,3.12 C117.459759,1.89745541 116.390602,1.25022592 115.321446,1.25022592 C114.141687,1.25022592 113.146265,2.00532699 113.183133,3.19191439 C113.293735,6.49997622 113.404337,17.7186207 113.404337,21.0985969 C113.404337,22.5009275 113.256867,22.608799 113.146265,22.608799 C113.035663,22.608799 112.851325,22.4290131 112.63012,22.1053983 C109.828193,18.0062782 103.671325,6.78763377 101.348675,3.19191439 C100.574458,2.00532699 99.099759,1.25022592 97.7356627,1.25022592 C96.113494,1.25022592 94.6756627,2.25702735 94.6756627,4.77403092 L94.6756627,4.91785969 C94.7125301,7.61464923 94.7493976,11.0305826 94.7493976,14.626302 C94.7493976,18.7613793 94.7125301,23.1121998 94.6387952,26.8157907 L94.6387952,26.8517479 Z" id="NOEIN" fill="#0E0D16"></path>
                    <path d="M138.44603,29.3494073 C135.570412,29.2854253 133.264885,28.3257097 131.529379,26.4702317 C129.793874,24.6147537 128.812125,22.1322893 128.584102,19.022764 C128.457423,17.487196 128.577766,15.6797316 128.945136,13.6003165 C129.312506,11.5209015 129.964894,9.60466933 130.90232,7.8515625 C131.839746,6.09845567 133.011512,4.63968793 134.417651,3.47521552 C136.773885,1.51736629 139.484779,0.570446878 142.550417,0.634428879 C144.437937,0.67281808 146.087909,1.11108821 147.500382,1.94925242 C148.912856,2.78741664 150.043451,3.99345926 150.892202,5.56741649 C151.740952,7.14137371 152.234994,8.93284286 152.374341,10.9418777 C152.475684,12.3622781 152.390177,13.9777994 152.117817,15.78849 C151.845457,17.5991807 151.345081,19.3266688 150.616676,20.9710062 C149.88827,22.6153436 148.947691,24.0645142 147.79491,25.3185614 C146.642129,26.5726086 145.283515,27.5675138 143.719026,28.3033068 C142.154538,29.0390999 140.39689,29.3877965 138.44603,29.3494073 Z M145.856728,10.8842942 C145.730048,7.68519413 144.501278,6.02168706 142.170381,5.89372306 C140.371536,5.80414826 138.883077,6.52393497 137.70496,8.0531048 C136.526844,9.58227462 135.747778,11.8376063 135.36774,14.8191676 C135.12705,16.6618492 135.038376,18.0886264 135.101715,19.099542 C135.228395,22.3498277 136.469832,24.0197328 138.826066,24.1093077 C140.371553,24.1860861 141.701664,23.6262519 142.816442,22.4297885 C143.931219,21.2333251 144.73562,19.4930408 145.229669,17.2088834 C145.723718,14.9247259 145.932735,12.8165506 145.856728,10.8842942 Z" id="OI" fill="#29F1C5"></path>
                    <polygon id="Path" fill="#FFED00" points="164.318465 28.9655172 157.819854 28.9655172 162.627306 1.01831897 169.106916 1.01831897"></polygon>
                </g>
            </g>
        </g>
    </g>
</svg>