<?xml version="1.0" encoding="UTF-8"?>
<svg width="40px" height="40px" viewBox="0 0 40 40" version="1.1" xmlns="http://www.w3.org/2000/svg" xmlns:xlink="http://www.w3.org/1999/xlink">
    <!-- Generator: Sketch 45.2 (43514) - http://www.bohemiancoding.com/sketch -->
    <title>social-button-fb</title>
    <desc>Created with Sketch.</desc>
    <defs></defs>
    <g id="P.0-Pages" stroke="none" stroke-width="1" fill="none" fill-rule="evenodd">
        <g id="0.0-home" transform="translate(-100.000000, -930.000000)" fill="#FFFFFF">
            <g id="bottom" transform="translate(100.000000, 930.000000)">
                <g id="share">
                    <g id="social-button-fb">
                        <path d="M20,40 C8.954305,40 0,31.045695 0,20 C0,8.954305 8.954305,0 20,0 C31.045695,0 40,8.954305 40,20 C40,31.045695 31.045695,40 20,40 Z M17.5527565,29.9998177 L17.5527565,30 L21.227983,30 L21.227983,20.6154674 L24.8358688,20.6154674 L25,17.2364594 L21.227983,17.2364594 C21.227983,13.1995916 21.227983,15.5057481 21.227983,14.7693023 C21.227983,13.8375771 21.428692,13.2763541 22.6817167,13.2763541 C23.8394515,13.2763541 24.9003958,13.2863824 24.9003958,13.2863824 L24.9825552,10.1310979 C24.9825552,10.1310979 23.942057,10 22.5352179,10 C19.0607004,10 17.5527565,12.0824331 17.5527565,14.3502995 L17.5527565,17.2362771 L15,17.2362771 L15,20.615285 L17.5527565,20.615285 L17.5527565,29.9998177 Z" id="Combined-Shape"></path>
                    </g>
                </g>
            </g>
        </g>
    </g>
</svg>