<?xml version="1.0" encoding="UTF-8"?>
<svg width="41px" height="40px" viewBox="0 0 41 40" version="1.1" xmlns="http://www.w3.org/2000/svg" xmlns:xlink="http://www.w3.org/1999/xlink">
    <!-- Generator: Sketch 44.1 (41455) - http://www.bohemiancoding.com/sketch -->
    <title>social-button-google</title>
    <desc>Created with Sketch.</desc>
    <defs></defs>
    <g id="P.0-Pages" stroke="none" stroke-width="1" fill="none" fill-rule="evenodd">
        <g id="0.0-home" transform="translate(-149.000000, -930.000000)" fill="#0E0D16">
            <g id="bottom" transform="translate(100.000000, 930.000000)">
                <g id="share">
                    <g id="social-button-google" transform="translate(49.333333, 0.000000)">
                        <path d="M20,40 C8.954305,40 0,31.045695 0,20 C0,8.954305 8.954305,0 20,0 C31.045695,0 40,8.954305 40,20 C40,31.045695 31.045695,40 20,40 Z M14.4612339,21.9751086 L14.4612336,21.9751077 C14.2410886,21.3578091 14.1212121,20.6929039 14.1212121,20 C14.1212121,19.2785976 14.2511522,18.5875444 14.4889041,17.9489685 L11.1338823,15.3704365 C10.4096139,16.7546476 10,18.3294886 10,20 C10,21.6399072 10.3947429,23.1876172 11.0943933,24.5532948 C12.751012,27.7869195 16.1170597,30 20,30 C22.5792829,30 24.9304913,29.0234966 26.7040935,27.4200214 L23.4257636,24.7780259 C22.4611895,25.4708349 21.278236,25.8787879 20,25.8787879 C17.4461393,25.8787879 15.2726305,24.250308 14.4612339,21.9751086 Z M26.7048468,27.4193403 L26.7048468,27.4193403 C28.48714,25.8076806 29.6859949,23.5628227 29.9466179,21.0395598 C29.9819122,20.6978519 30,20.3510383 30,20 C30,19.2893397 29.925869,18.5959936 29.784918,17.9272727 L20.0606061,17.9272727 L20.0606061,22.0484848 L25.5120433,22.0484849 C25.1017098,23.1521676 24.3693741,24.0992465 23.4292076,24.7755503 L26.7048468,27.4193403 Z M14.4889041,17.9489685 C15.3211856,15.7135509 17.4746375,14.1212121 20,14.1212121 C21.6372599,14.1212121 23.1181956,14.7905159 24.1841246,15.870441 L27.0876695,12.9455727 C25.2767292,11.1261522 22.7698781,10 20,10 C16.1476639,10 12.8041046,12.1783323 11.1338823,15.3704365 L14.4889041,17.9489685 Z" id="Combined-Shape"></path>
                    </g>
                </g>
            </g>
        </g>
    </g>
</svg>